:FULLY-SPECIFIED
:FORCE-ALL-JOINTS-BE-3DOF
:DEGREES
951
root 1.08649 15.2724 32.7445 6.90935 -3.09831 364.348
lfemur 7.14052 0.984595 4.74687
ltibia -0.0720236 0 0
lfoot -28.5588 -13.5326 0
ltoes -32.4419 0 0
rfemur -31.9786 -16.3755 -6.56091
rtibia 49.5939 0 0
rfoot -21.4084 4.5045 0
rtoes -42.1994 0 0
lowerback -2.41434 -0.814823 1.24263
upperback -1.20051 -1.106 -6.63008
thorax -0.0414816 -0.587619 -7.64359
lowerneck -6.26308 1.10058 5.26555
upperneck 0.573217 0.996283 3.06828
head 1.2393 0.573154 0.100031
lclavicle -2.30485e-15 -1.50682e-14 0
lhumerus -59.1792 -43.4998 112.521
lradius 55.3961 0 0
lwrist 26.3511 0 0
lhand 39.0318 24.2886 0
lfingers 7.12502 0 0
lthumb 61.585 36.2677 0
rclavicle -2.30485e-15 -1.50682e-14 0
rhumerus 3.48852 -29.9239 1.40726
rradius 28.7176 0 0
rwrist -10.8926 0 0
rhand -34.9971 -50.8552 0
rfingers 7.12502 0 0
rthumb -8.14101 -800.67 0
952
root 1.07105 15.2629 32.7377 6.87322 -3.2475 364.242
lfemur 7.25083 1.11054 4.89726
ltibia -0.0114307 0 0
lfoot -28.709 -13.2365 0
ltoes -32.7038 0 0
rfemur -32.1767 -16.3796 -6.33991
rtibia 49.8155 0 0
rfoot -21.5743 4.54137 0
rtoes -42.1066 0 0
lowerback -2.42877 -0.906934 1.30947
upperback -1.1352 -1.22718 -6.55646
thorax 0.0177045 -0.646464 -7.60616
lowerneck -6.18212 1.2496 5.45181
upperneck 0.488438 1.19019 3.03901
head 1.20049 0.666746 0.0654242
lclavicle -5.44189e-16 -1.32183e-14 0
lhumerus -59.1662 -43.4511 112.553
lradius 55.3444 0 0
lwrist 26.506 0 0
lhand 38.7804 24.1768 0
lfingers 7.12502 0 0
lthumb 61.3753 36.4164 0
rclavicle -5.44189e-16 -1.32183e-14 0
rhumerus 3.40826 -27.6277 2.05809
rradius 28.9482 0 0
rwrist -9.97865 0 0
rhand -33.3999 -50.5592 0
rfingers 7.12502 0 0
rthumb -6.59976 -800.428 0
953
root 1.05753 15.2529 32.7303 6.8266 -3.42135 364.17
lfemur 7.39583 1.25075 5.01695
ltibia 0 0 0
lfoot -28.8242 -13.0103 0
ltoes -32.9027 0 0
rfemur -32.3714 -16.4053 -6.16964
rtibia 50.0221 0 0
rfoot -21.7576 4.64439 0
rtoes -42.0196 0 0
lowerback -2.40532 -0.962165 1.33844
upperback -1.08989 -1.30032 -6.49494
thorax 0.0421056 -0.681987 -7.55798
lowerneck -6.1171 1.35257 5.59306
upperneck 0.426627 1.3236 3.03492
head 1.17095 0.731268 0.0443343
lclavicle -2.98177e-16 -1.43125e-14 0
lhumerus -59.1613 -43.4609 112.641
lradius 55.3053 0 0
lwrist 26.5206 0 0
lhand 38.6117 24.0614 0
lfingers 7.12502 0 0
lthumb 61.2347 36.4768 0
rclavicle -2.98177e-16 -1.43125e-14 0
rhumerus 3.46276 -26.2543 2.48423
rradius 29.0263 0 0
rwrist -9.50186 0 0
rhand -32.44 -50.3388 0
rfingers 7.12502 0 0
rthumb -5.6736 -800.243 0
954
root 1.0461 15.2423 32.7219 6.7592 -3.64186 364.135
lfemur 7.58705 1.42043 5.0983
ltibia -0.0201291 0 0
lfoot -28.9153 -12.8518 0
ltoes -33.0359 0 0
rfemur -32.5698 -16.4283 -6.05416
rtibia 50.2192 0 0
rfoot -21.9541 4.8091 0
rtoes -41.9434 0 0
lowerback -2.33651 -0.98091 1.31531
upperback -1.06535 -1.32586 -6.44517
thorax 0.0269997 -0.694465 -7.49024
lowerneck -6.06465 1.40861 5.68571
upperneck 0.396846 1.3953 3.06612
head 1.15294 0.766497 0.0404882
lclavicle -2.33761e-15 -2.05253e-14 0
lhumerus -59.1721 -43.5522 112.803
lradius 55.2823 0 0
lwrist 26.3513 0 0
lhand 38.5493 23.91 0
lfingers 7.12502 0 0
lthumb 61.1831 36.3928 0
rclavicle -2.33761e-15 -2.05253e-14 0
rhumerus 3.66677 -25.704 2.63845
rradius 28.9859 0 0
rwrist -9.55483 0 0
rhand -32.0887 -50.1386 0
rfingers 7.12502 0 0
rthumb -5.33466 -800.059 0
955
root 1.03676 15.2312 32.7125 6.6672 -3.91486 364.128
lfemur 7.81288 1.62452 5.14352
ltibia -0.0279571 0 0
lfoot -29.0102 -12.7326 0
ltoes -33.1236 0 0
rfemur -32.7771 -16.4121 -5.97996
rtibia 50.415 0 0
rfoot -22.1436 4.99762 0
rtoes -41.8809 0 0
lowerback -2.2344 -0.977961 1.24266
upperback -1.05444 -1.32289 -6.40277
thorax -0.016009 -0.69317 -7.40035
lowerneck -6.01818 1.4348 5.7421
upperneck 0.397625 1.42766 3.1303
head 1.14514 0.783469 0.0518148
lclavicle -6.40864e-15 -3.18519e-14 0
lhumerus -59.1977 -43.7148 113.028
lradius 55.2717 0 0
lwrist 26.027 0 0
lhand 38.5762 23.7077 0
lfingers 7.12502 0 0
lthumb 61.2061 36.1668 0
rclavicle -6.40864e-15 -3.18519e-14 0
rhumerus 3.95907 -25.4606 2.56375
rradius 28.9374 0 0
rwrist -10.0309 0 0
rhand -32.0264 -49.861 0
rfingers 7.12502 0 0
rthumb -5.27467 -799.786 0
956
root 1.02933 15.2199 32.7022 6.56074 -4.21777 364.139
lfemur 8.05602 1.84776 5.16206
ltibia -0.0268389 0 0
lfoot -29.1071 -12.6448 0
ltoes -33.1764 0 0
rfemur -32.9874 -16.3702 -5.93741
rtibia 50.6062 0 0
rfoot -22.3229 5.20076 0
rtoes -41.8272 0 0
lowerback -2.11192 -0.958423 1.13747
upperback -1.05357 -1.29806 -6.36645
thorax -0.0772565 -0.681266 -7.29725
lowerneck -5.97904 1.43851 5.7709
upperneck 0.418213 1.43044 3.21518
head 1.14453 0.786572 0.073345
lclavicle -1.15489e-14 -4.58445e-14 0
lhumerus -59.2288 -43.9189 113.289
lradius 55.2681 0 0
lwrist 25.6076 0 0
lhand 38.6592 23.4853 0
lfingers 7.12502 0 0
lthumb 61.2761 35.8627 0
rclavicle -1.15489e-14 -4.58445e-14 0
rhumerus 4.3001 -25.443 2.32937
rradius 28.884 0 0
rwrist -10.7858 0 0
rhand -32.1659 -49.5317 0
rfingers 7.12502 0 0
rthumb -5.40936 -799.453 0
957
root 1.02363 15.2087 32.6917 6.44993 -4.52803 364.163
lfemur 8.29916 2.07488 5.16335
ltibia -0.0201291 0 0
lfoot -29.2044 -12.5802 0
ltoes -33.2048 0 0
rfemur -33.1949 -16.3164 -5.91687
rtibia 50.7895 0 0
rfoot -22.4891 5.40931 0
rtoes -41.778 0 0
lowerback -1.98202 -0.927399 1.01672
upperback -1.05917 -1.25801 -6.33497
thorax -0.147079 -0.661919 -7.18986
lowerneck -5.94858 1.42711 5.7808
upperneck 0.447863 1.41339 3.30853
head 1.14806 0.780194 0.100109
lclavicle -1.67962e-14 -6.0055e-14 0
lhumerus -59.2565 -44.1349 113.563
lradius 55.2662 0 0
lwrist 25.1528 0 0
lhand 38.7655 23.2735 0
lfingers 7.12502 0 0
lthumb 61.3653 35.5447 0
rclavicle -1.67962e-14 -6.0055e-14 0
rhumerus 4.65029 -25.5701 2.00457
rradius 28.8285 0 0
rwrist -11.6755 0 0
rhand -32.4199 -49.1762 0
rfingers 7.12502 0 0
rthumb -5.65446 -799.088 0
